<svg class="icon" viewBox="0 0 1041 1024" version="1.1" xmlns="http://www.w3.org/2000/svg" style="height: 220px; width: 220px;"><path d="M83.728215 271.232246l271.625336 109.279078a30.464491 30.464491 0 0 0 0 6.092899L117.927063 291.083301a126.378503 126.378503 0 0 1-33.412668-19.65451M0 195.16929a164.311708 164.311708 0 0 0 102.4 132.274856L409.796545 452.053743l101.220729-10.613436 228.385413 91.786564a22.602687 22.602687 0 0 0 7.075624 1.375816 19.654511 19.654511 0 0 0 17.689059-11.792706 18.47524 18.47524 0 0 0-10.41689-24.371593l-161.166987-64.859885L39.309021 211.089443l-39.309021-15.920153z m436.526679 233.69213l-34.591938-7.665259-7.861804-33.805758 34.591938 7.665259 7.861804 33.805758z" fill="#3369e7"></path><path d="M560.939731 1024a158.415355 158.415355 0 0 1-47.36737-7.272169 154.287908 154.287908 0 0 1-92.179655-77.045681 151.339731 151.339731 0 0 1-9.63071-117.927064 157.236084 157.236084 0 0 1 196.545106-100.041458 154.287908 154.287908 0 0 1 92.179654 77.045681 151.536276 151.536276 0 0 1 9.63071 117.927063 157.236084 157.236084 0 0 1-149.177735 107.313628z m0-269.266795a117.927063 117.927063 0 0 0-112.03071 80.190403 112.620345 112.620345 0 0 0 7.272169 86.676392 116.551248 116.551248 0 0 0 68.987332 57.784261A117.927063 117.927063 0 0 0 672.970441 904.107486a111.834165 111.834165 0 0 0-7.272168-86.676392 115.175432 115.175432 0 0 0-68.790787-57.587716 117.927063 117.927063 0 0 0-35.77121-5.110173z"></path><path d="M884.452975 705.793474a158.415355 158.415355 0 0 1-47.36737-7.272169 155.860269 155.860269 0 0 1-92.179655-77.242226 151.339731 151.339731 0 0 1-9.434165-116.944338 157.236084 157.236084 0 0 1 196.545106-100.041459 156.056814 156.056814 0 0 1 92.179654 77.045682 151.339731 151.339731 0 0 1 9.434165 117.927063A157.236084 157.236084 0 0 1 884.452975 705.793474z m0-269.46334a117.927063 117.927063 0 0 0-111.834165 80.190403 111.834165 111.834165 0 0 0 7.075624 86.676392 115.961612 115.961612 0 0 0 68.987332 57.784261 117.927063 117.927063 0 0 0 147.605374-74.68714 112.4238 112.4238 0 0 0-7.075624-86.872937 116.158157 116.158157 0 0 0-68.987332-57.587716A119.892514 119.892514 0 0 0 884.452975 436.330134z" fill="#3369e7"></path><path d="M275.163148 80.780038a124.609597 124.609597 0 0 1 22.209597 34.985029L393.090211 348.081382a43.633013 43.633013 0 0 0-7.272169 0L275.163148 80.780038M198.707102 0l15.920153 39.309021 226.616507 543.447217 65.84261 158.415355a19.654511 19.654511 0 0 0 17.68906 11.596161 19.654511 19.654511 0 0 0 17.689059-25.550863l-93.358925-224.651056 9.827255-99.844914L334.126679 100.631094A166.67025 166.67025 0 0 0 198.707102 0z m237.819577 428.86142l-34.591938-7.665259-7.861804-33.805758 34.591938 7.665259 7.861804 33.805758z"></path></svg>